<?xml version="1.0" standalone="no"?>
<!DOCTYPE svg PUBLIC "-//W3C//DTD SVG 20010904//EN"
 "http://www.w3.org/TR/2001/REC-SVG-20010904/DTD/svg10.dtd">
<svg version="1.0" xmlns="http://www.w3.org/2000/svg"
 width="700.000000pt" height="700.000000pt" viewBox="0 0 700.000000 700.000000"
 preserveAspectRatio="xMidYMid meet">
<metadata>
Created by potrace 1.14, written by Peter Selinger 2001-2017
</metadata>
<g transform="translate(0.000000,700.000000) scale(0.100000,-0.100000)"
fill="#000000" stroke="none">
<path d="M1660 5349 c-423 -48 -815 -236 -1110 -531 -863 -862 -685 -2290 363
-2918 161 -96 380 -181 572 -220 741 -153 1502 158 1920 785 57 85 137 235
173 323 l21 52 59 0 59 0 6 -112 c8 -173 51 -273 163 -383 67 -66 155 -116
249 -140 83 -21 397 -21 480 0 178 46 316 169 381 341 21 54 27 93 32 182 l5
112 108 0 108 0 3 -317 c3 -300 4 -321 25 -377 43 -113 136 -208 253 -258 54
-22 63 -23 375 -23 310 0 322 1 375 23 113 46 207 140 252 249 22 56 23 70 26
380 l3 323 22 4 c12 3 42 7 67 11 106 14 246 119 299 223 45 87 51 140 51 422
0 348 -13 402 -128 522 -66 69 -148 112 -242 127 -43 7 -560 11 -1552 11
-1254 0 -1488 2 -1488 14 0 30 -154 317 -217 405 -81 113 -237 278 -342 363
-384 310 -893 461 -1371 407z m455 -454 c505 -90 943 -476 1095 -965 34 -109
69 -158 133 -189 l43 -21 1587 0 1587 0 0 -219 0 -220 -148 -3 c-142 -3 -150
-4 -190 -30 -22 -15 -54 -49 -69 -75 l-28 -48 -3 -412 -3 -413 -214 0 -215 0
0 396 c0 285 -3 408 -12 438 -16 52 -84 121 -135 136 -26 8 -159 10 -425 8
l-386 -3 -44 -30 c-28 -20 -52 -49 -70 -84 -28 -54 -28 -56 -28 -259 l0 -204
-34 -34 -34 -34 -147 0 -147 0 -34 34 -34 34 0 205 c0 205 0 205 -28 258 -17
34 -44 65 -71 84 l-43 30 -306 3 c-208 2 -319 0 -345 -8 -22 -6 -58 -30 -82
-54 -36 -36 -47 -59 -73 -142 -133 -427 -477 -776 -905 -919 -154 -52 -267
-69 -447 -69 -180 0 -293 17 -448 69 -482 162 -835 560 -944 1068 -31 146 -31
408 0 554 63 290 185 517 392 723 233 233 510 369 836 410 95 12 311 4 419
-15z"/>
</g>
</svg>
